<mxfile host="app.diagrams.net" modified="2023-05-05T10:13:02.384Z" agent="Mozilla/5.0 (Windows NT 10.0; Win64; x64) AppleWebKit/537.36 (KHTML, like Gecko) Chrome/112.0.0.0 Safari/537.36 Edg/112.0.1722.68" etag="GbAMmgaW-0Nlml5_Ja1a" version="21.2.9" type="github">
  <diagram name="第 1 页" id="XI0D9s6GpEK0-3o_3Bit">
    <mxGraphModel dx="1562" dy="869" grid="1" gridSize="10" guides="1" tooltips="1" connect="1" arrows="1" fold="1" page="1" pageScale="1" pageWidth="827" pageHeight="1169" math="0" shadow="0">
      <root>
        <mxCell id="0" />
        <mxCell id="1" parent="0" />
        <mxCell id="jdI19weWXWHiag0R_MRU-3" value="" style="edgeStyle=orthogonalEdgeStyle;orthogonalLoop=1;jettySize=auto;html=1;curved=1;entryX=0;entryY=0.5;entryDx=0;entryDy=0;" edge="1" parent="1" source="jdI19weWXWHiag0R_MRU-1" target="jdI19weWXWHiag0R_MRU-2">
          <mxGeometry relative="1" as="geometry" />
        </mxCell>
        <mxCell id="jdI19weWXWHiag0R_MRU-1" value="前端" style="rounded=1;whiteSpace=wrap;html=1;" vertex="1" parent="1">
          <mxGeometry x="120" y="330" width="120" height="60" as="geometry" />
        </mxCell>
        <mxCell id="jdI19weWXWHiag0R_MRU-2" value="html" style="rounded=1;whiteSpace=wrap;html=1;" vertex="1" parent="1">
          <mxGeometry x="320" y="170" width="120" height="60" as="geometry" />
        </mxCell>
      </root>
    </mxGraphModel>
  </diagram>
</mxfile>
